<?xml version="1.0" encoding="UTF-8"?>
<svg xmlns="http://www.w3.org/2000/svg" viewBox="0 0 64 64" role="img" aria-labelledby="title desc">
  <title id="title">WiiLand</title>
  <desc id="desc">A simplified Wii Remote controller</desc>
  <rect x="3" y="3" width="58" height="58" rx="15" fill="#29343d"/>
  <rect x="17" y="4" width="30" height="56" rx="11" fill="#f2f0e9" stroke="#131c23" stroke-width="2"/>
  <circle cx="38.5" cy="12" r="2.5" fill="none" stroke="#4a9bc4" stroke-width="1.7"/>
  <path d="M24 13h6v4h4v6h-4v4h-6v-4h-4v-6h4z" fill="#303b43"/>
  <circle cx="38" cy="28.5" r="4" fill="#4a9bc4"/>
  <rect x="22" y="35" width="6" height="2.5" rx="1.25" fill="#52606a"/>
  <circle cx="32" cy="36.25" r="2.5" fill="none" stroke="#52606a" stroke-width="1.5"/>
  <path d="M36 35h6v2.5h-6zM37.75 33.25h2.5v6h-2.5z" fill="#52606a"/>
  <g fill="#65727a">
    <circle cx="27" cy="43" r="1.1"/>
    <circle cx="32" cy="43" r="1.1"/>
    <circle cx="37" cy="43" r="1.1"/>
  </g>
  <circle cx="28" cy="50" r="3" fill="#3d4850"/>
  <circle cx="36" cy="54" r="3" fill="#3d4850"/>
  <g fill="#4a9bc4">
    <rect x="26" y="57" width="2.5" height="1.4" rx="0.7"/>
    <rect x="30" y="57" width="2.5" height="1.4" rx="0.7" opacity="0.55"/>
    <rect x="34" y="57" width="2.5" height="1.4" rx="0.7" opacity="0.35"/>
    <rect x="38" y="57" width="2.5" height="1.4" rx="0.7" opacity="0.2"/>
  </g>
</svg>
